<svg width="1080" height="1080" viewBox="0 0 1080 1080" fill="none" xmlns="http://www.w3.org/2000/svg">
<path d="M332.474 515.61C318.554 515.61 308.027 511.695 300.893 503.865C293.759 495.861 290.192 484.464 290.192 469.674V459.234H317.336V471.762C317.336 483.594 322.295 489.51 332.213 489.51C337.085 489.51 340.739 488.118 343.175 485.334C345.785 482.376 347.09 477.678 347.09 471.24C347.09 463.584 345.35 456.885 341.87 451.143C338.39 445.227 331.952 438.18 322.556 430.002C310.724 419.562 302.459 410.166 297.761 401.814C293.063 393.288 290.714 383.718 290.714 373.104C290.714 358.662 294.368 347.526 301.676 339.696C308.984 331.692 319.598 327.69 333.518 327.69C347.264 327.69 357.617 331.692 364.577 339.696C371.711 347.526 375.278 358.836 375.278 373.626V381.195H348.134V371.799C348.134 365.535 346.916 361.011 344.48 358.227C342.044 355.269 338.477 353.79 333.779 353.79C324.209 353.79 319.424 359.619 319.424 371.277C319.424 377.889 321.164 384.066 324.644 389.808C328.298 395.55 334.823 402.51 344.219 410.688C356.225 421.128 364.49 430.611 369.014 439.137C373.538 447.663 375.8 457.668 375.8 469.152C375.8 484.116 372.059 495.6 364.577 503.604C357.269 511.608 346.568 515.61 332.474 515.61ZM392.262 330.3H420.972V404.685H451.77V330.3H480.48V513H451.77V430.785H420.972V513H392.262V330.3ZM524.046 330.3H562.935L592.689 513H563.979L558.759 476.721V477.243H526.134L520.914 513H494.292L524.046 330.3ZM555.366 452.448L542.577 362.142H542.055L529.527 452.448H555.366ZM606.618 330.3H649.161C663.951 330.3 674.739 333.78 681.525 340.74C688.311 347.526 691.704 358.053 691.704 372.321V383.544C691.704 402.51 685.44 414.516 672.912 419.562V420.084C679.872 422.172 684.744 426.435 687.528 432.873C690.486 439.311 691.965 447.924 691.965 458.712V490.815C691.965 496.035 692.139 500.298 692.487 503.604C692.835 506.736 693.705 509.868 695.097 513H665.865C664.821 510.042 664.125 507.258 663.777 504.648C663.429 502.038 663.255 497.34 663.255 490.554V457.146C663.255 448.794 661.863 442.965 659.079 439.659C656.469 436.353 651.858 434.7 645.246 434.7H635.328V513H606.618V330.3ZM645.768 408.6C651.51 408.6 655.773 407.121 658.557 404.163C661.515 401.205 662.994 396.246 662.994 389.286V375.192C662.994 368.58 661.776 363.795 659.34 360.837C657.078 357.879 653.424 356.4 648.378 356.4H635.328V408.6H645.768ZM711.885 330.3H790.185V356.4H740.595V404.685H780.006V430.785H740.595V486.9H790.185V513H711.885V330.3ZM491.156 540.3H519.866V617.295L556.406 540.3H585.116L550.925 607.377L585.638 723H555.623L531.35 641.568L519.866 664.797V723H491.156V540.3ZM640.732 725.61C626.812 725.61 616.198 721.695 608.89 713.865C601.582 705.861 597.928 694.464 597.928 679.674V540.3H626.638V681.762C626.638 688.026 627.856 692.55 630.292 695.334C632.902 698.118 636.556 699.51 641.254 699.51C645.952 699.51 649.519 698.118 651.955 695.334C654.565 692.55 655.87 688.026 655.87 681.762V540.3H683.536V679.674C683.536 694.464 679.882 705.861 672.574 713.865C665.266 721.695 654.652 725.61 640.732 725.61ZM730.344 645.222L695.631 540.3H726.168L745.743 607.377H746.265L765.84 540.3H793.767L759.054 645.222V723H730.344V645.222Z" fill="white"/>
</svg>
